<svg viewBox="0 0 793 190" version="1.1"
    xmlns="http://www.w3.org/2000/svg" xml:space="preserve" style="fill-rule:evenodd;clip-rule:evenodd;stroke-linejoin:round;stroke-miterlimit:2;">
    <g id="Artboard1" transform="matrix(0.991987,0,0,0.8951,0,-266.053)">
        <rect x="0" y="297.233" width="800" height="212.346" style="fill:none;"/>
        <g transform="matrix(1.00808,0,0,1.11719,-3.56527,-60.2493)">
            <g transform="matrix(5.78247,0,0,11.8055,-243.61,-815.476)">
                <path d="M51.231,107.893C51.054,107.972 45.916,105.662 43.503,104.453C42.613,104.028 42.617,103.365 43.503,102.853C45.96,101.642 51.079,99.345 51.231,99.413C53.34,100.356 51.588,101.277 51.231,101.437C51.061,101.513 46.281,103.511 46.281,103.621C46.281,103.731 51.033,105.732 51.231,105.821C51.786,106.069 53.29,106.972 51.231,107.893Z" style="fill-rule:nonzero;"/>
            </g>
            <g transform="matrix(5.78247,0,0,11.8055,331.528,-815.476)">
                <path d="M62.935,109.641C62.837,109.597 67.926,96.295 67.985,96.269C68.045,96.242 70.843,96.235 70.918,96.269C70.993,96.302 70.062,98.379 70.111,98.421C70.221,98.515 79.401,102.767 79.593,102.853C80.702,103.349 80.702,103.957 79.593,104.453C79.342,104.565 72.495,107.922 72.431,107.893C70.235,106.911 72.033,105.999 72.431,105.821C72.608,105.742 76.938,103.707 76.938,103.622C76.938,103.536 69.457,100.202 69.38,100.237C69.304,100.271 65.976,109.592 65.868,109.641C65.76,109.689 63.003,109.671 62.935,109.641Z" style="fill-rule:nonzero;"/>
            </g>
            <path d="M163.641,325.479C215.934,325.479 258.389,366.725 258.389,417.529C258.389,468.333 215.934,509.579 163.641,509.579C111.348,509.579 68.892,468.333 68.892,417.529C68.892,366.725 111.348,325.479 163.641,325.479ZM162.647,452.913C159.591,452.913 156.84,452.534 154.395,451.778C151.95,451.022 149.867,449.88 148.146,448.352C146.425,446.824 145.098,444.894 144.165,442.561C143.232,440.229 142.765,437.486 142.765,434.333C142.765,431.566 143.063,428.84 143.658,426.154C144.253,423.467 145.122,420.91 146.264,418.481C147.406,416.052 148.805,413.816 150.462,411.773C152.119,409.73 154.033,407.96 156.205,406.464C158.376,404.968 160.773,403.802 163.395,402.966C166.017,402.129 168.856,401.711 171.913,401.711C174.937,401.711 177.68,402.089 180.141,402.845C182.602,403.601 184.693,404.743 186.414,406.271C188.135,407.799 189.463,409.73 190.396,412.062C191.329,414.395 191.795,417.137 191.795,420.29C191.795,423.057 191.497,425.784 190.902,428.47C190.307,431.156 189.446,433.706 188.32,436.119C187.194,438.532 185.795,440.768 184.122,442.827C182.449,444.886 180.535,446.663 178.379,448.159C176.224,449.655 173.827,450.821 171.189,451.658C168.551,452.494 165.704,452.913 162.647,452.913ZM237.736,451.127C235.517,451.674 233.305,452.108 231.101,452.43C228.897,452.752 226.83,452.913 224.9,452.913C221.683,452.913 218.924,452.559 216.624,451.851C214.323,451.143 212.498,450.017 211.146,448.473C209.795,446.929 208.951,444.918 208.613,442.441C208.275,439.963 208.46,436.955 209.168,433.416L213.511,411.942L200.385,411.942L202.17,402.773L215.297,402.773L217.854,390.226L230.546,387.089L227.361,402.773L246.423,402.773L244.637,411.942L225.576,411.942L221.232,433.513C220.911,435.154 220.758,436.593 220.774,437.832C220.79,439.071 221.031,440.076 221.498,440.848C221.964,441.62 222.664,442.223 223.597,442.658C224.53,443.092 225.752,443.309 227.265,443.309C229.066,443.309 230.852,443.148 232.621,442.827C234.391,442.505 236.096,442.151 237.736,441.765L237.736,451.127ZM118.105,401.904C119.843,401.904 121.371,401.984 122.69,402.145C124.009,402.306 125.215,402.483 126.309,402.676L130.17,383.614L141.896,383.614L132.824,428.977C132.631,430.006 132.438,431.108 132.245,432.282C132.052,433.457 131.851,434.904 131.642,436.625C131.433,438.347 131.199,440.43 130.942,442.875C130.685,445.32 130.395,448.296 130.073,451.803L120.47,451.803L120.856,442.923C120.116,444.049 119.183,445.199 118.057,446.374C116.931,447.548 115.62,448.618 114.124,449.583C112.628,450.548 110.971,451.344 109.154,451.971C107.336,452.599 105.365,452.913 103.242,452.913C98.481,452.913 94.869,451.433 92.408,448.473C89.947,445.513 88.716,441.315 88.716,435.878C88.716,430.955 89.376,426.411 90.695,422.245C92.014,418.078 93.928,414.491 96.438,411.483C98.947,408.475 102.027,406.127 105.679,404.438C109.33,402.749 113.473,401.904 118.105,401.904ZM100.974,435.105C100.974,437.679 101.416,439.642 102.301,440.993C103.186,442.344 104.529,443.02 106.33,443.02C107.81,443.02 109.387,442.424 111.06,441.234C112.733,440.044 114.325,438.516 115.837,436.65C117.349,434.784 118.676,432.709 119.818,430.424C120.961,428.14 121.741,425.904 122.159,423.717L124.427,412.183C123.719,411.926 122.786,411.676 121.628,411.435C120.47,411.194 119.199,411.073 117.816,411.073C115.532,411.073 113.529,411.483 111.808,412.304C110.087,413.124 108.599,414.202 107.344,415.537C106.089,416.872 105.052,418.392 104.231,420.097C103.411,421.802 102.759,423.54 102.277,425.309C101.794,427.078 101.456,428.824 101.263,430.545C101.07,432.266 100.974,433.786 100.974,435.105ZM179.441,421.448C179.441,418.263 178.661,415.875 177.101,414.282C175.54,412.69 173.296,411.893 170.369,411.893C168.631,411.893 167.055,412.223 165.639,412.883C164.224,413.542 162.945,414.419 161.803,415.513C160.661,416.607 159.671,417.877 158.835,419.325C157.998,420.773 157.307,422.285 156.76,423.861C156.213,425.438 155.803,427.022 155.529,428.615C155.256,430.207 155.119,431.711 155.119,433.127C155.119,436.312 155.907,438.709 157.484,440.317C159.06,441.926 161.312,442.73 164.24,442.73C165.977,442.73 167.554,442.4 168.969,441.741C170.385,441.081 171.655,440.197 172.781,439.087C173.907,437.977 174.889,436.706 175.725,435.274C176.562,433.843 177.253,432.339 177.8,430.762C178.347,429.186 178.757,427.593 179.031,425.985C179.304,424.376 179.441,422.864 179.441,421.448Z"/>
            <g transform="matrix(10.6985,0,0,10.6985,-3145.07,-3122.15)">
                <path d="M322.715,329.697L323.031,328.094L326.701,328.094L325.588,333.596C325.078,333.812 324.571,333.974 324.069,334.082C323.566,334.19 323.012,334.243 322.407,334.243C321.807,334.243 321.272,334.159 320.801,333.991C320.33,333.822 319.93,333.576 319.601,333.253C319.272,332.929 319.021,332.532 318.847,332.061C318.673,331.59 318.587,331.049 318.587,330.439C318.587,330.033 318.625,329.582 318.701,329.085C318.777,328.588 318.908,328.084 319.092,327.573C319.276,327.063 319.521,326.568 319.826,326.089C320.131,325.61 320.511,325.184 320.967,324.81C321.422,324.437 321.961,324.137 322.585,323.911C323.208,323.684 323.931,323.571 324.752,323.571C325.22,323.571 325.688,323.615 326.157,323.701C326.625,323.788 327.067,323.9 327.483,324.037L327.112,325.829C326.765,325.697 326.371,325.577 325.932,325.47C325.492,325.362 325.033,325.308 324.554,325.308C324.075,325.308 323.645,325.388 323.264,325.548C322.882,325.709 322.545,325.922 322.253,326.188C321.961,326.454 321.713,326.759 321.507,327.104C321.302,327.448 321.134,327.809 321.002,328.185C320.871,328.561 320.775,328.94 320.714,329.322C320.653,329.703 320.623,330.06 320.623,330.391C320.623,330.733 320.664,331.035 320.746,331.295C320.827,331.556 320.956,331.777 321.132,331.958C321.309,332.14 321.535,332.277 321.811,332.369C322.088,332.461 322.42,332.507 322.81,332.507C323.052,332.507 323.256,332.492 323.422,332.463C323.587,332.434 323.754,332.391 323.923,332.333L324.46,329.697L322.715,329.697Z" style="fill-rule:nonzero;"/>
            </g>
            <g transform="matrix(10.6985,0,0,10.6985,-3145.07,-3122.15)">
                <path d="M330.268,326.424L329.268,331.401C329.193,331.817 329.205,332.136 329.306,332.359C329.406,332.582 329.584,332.694 329.839,332.694C330.07,332.694 330.315,332.601 330.576,332.416C330.837,332.23 331.085,331.992 331.32,331.701C331.556,331.411 331.763,331.087 331.941,330.732C332.118,330.376 332.24,330.027 332.305,329.687L332.952,326.424L334.779,326.424L333.967,330.506C333.937,330.666 333.906,330.838 333.876,331.021C333.846,331.204 333.815,331.429 333.782,331.698C333.75,331.966 333.714,332.29 333.673,332.671C333.633,333.052 333.588,333.516 333.538,334.062L332.042,334.062L332.102,332.679C331.987,332.854 331.842,333.033 331.666,333.216C331.491,333.399 331.287,333.566 331.053,333.716C330.82,333.866 330.562,333.991 330.279,334.088C329.996,334.186 329.689,334.235 329.358,334.235C328.952,334.235 328.608,334.167 328.324,334.032C328.041,333.897 327.818,333.705 327.655,333.457C327.492,333.209 327.392,332.908 327.355,332.555C327.317,332.201 327.343,331.807 327.434,331.371L328.441,326.424L330.268,326.424Z" style="fill-rule:nonzero;"/>
            </g>
            <g transform="matrix(10.6985,0,0,10.6985,-3145.07,-3122.15)">
                <path d="M339.564,331.506C339.474,331.982 339.476,332.317 339.572,332.509C339.667,332.702 339.855,332.799 340.135,332.799C340.371,332.799 340.632,332.748 340.917,332.645C341.203,332.542 341.529,332.403 341.895,332.228L341.895,333.633C341.569,333.809 341.219,333.953 340.846,334.066C340.473,334.178 340.093,334.235 339.707,334.235C338.85,334.235 338.254,334.013 337.918,333.569C337.582,333.126 337.512,332.418 337.707,331.446L338.196,328.98C338.291,328.504 338.289,328.169 338.188,327.976C338.088,327.783 337.9,327.687 337.625,327.687C337.394,327.687 337.135,327.738 336.846,327.841C336.558,327.944 336.234,328.083 335.873,328.258L335.873,326.852C336.199,326.672 336.547,326.527 336.918,326.416C337.289,326.306 337.67,326.251 338.061,326.251C338.913,326.251 339.506,326.474 339.842,326.92C340.178,327.366 340.251,328.073 340.06,329.04L339.564,331.506ZM341.075,324.266C341.075,324.447 341.04,324.614 340.97,324.77C340.9,324.925 340.806,325.059 340.688,325.172C340.57,325.285 340.435,325.373 340.282,325.435C340.129,325.498 339.968,325.529 339.797,325.529C339.622,325.529 339.461,325.498 339.316,325.435C339.171,325.373 339.045,325.29 338.94,325.187C338.835,325.084 338.753,324.964 338.696,324.826C338.638,324.688 338.609,324.544 338.609,324.394C338.609,324.214 338.644,324.047 338.715,323.894C338.785,323.741 338.88,323.608 339,323.496C339.121,323.383 339.258,323.294 339.414,323.229C339.569,323.164 339.732,323.131 339.902,323.131C340.083,323.131 340.245,323.162 340.387,323.225C340.53,323.288 340.653,323.372 340.756,323.477C340.858,323.582 340.937,323.702 340.993,323.838C341.048,323.973 341.075,324.116 341.075,324.266Z" style="fill-rule:nonzero;"/>
            </g>
            <g transform="matrix(10.6985,0,0,10.6985,-3145.07,-3122.15)">
                <path d="M347.68,326.288C347.951,326.288 348.189,326.301 348.394,326.326C348.6,326.351 348.788,326.379 348.958,326.409L349.56,323.439L351.386,323.439L349.973,330.506C349.943,330.666 349.913,330.838 349.883,331.021C349.853,331.204 349.821,331.429 349.789,331.698C349.756,331.966 349.72,332.29 349.68,332.671C349.64,333.052 349.595,333.516 349.545,334.062L348.049,334.062L348.109,332.679C347.993,332.854 347.848,333.033 347.673,333.216C347.497,333.399 347.293,333.566 347.06,333.716C346.827,333.866 346.569,333.991 346.286,334.088C346.002,334.186 345.695,334.235 345.365,334.235C344.623,334.235 344.06,334.004 343.677,333.543C343.293,333.082 343.102,332.428 343.102,331.581C343.102,330.814 343.204,330.106 343.41,329.457C343.615,328.808 343.914,328.249 344.305,327.781C344.696,327.312 345.175,326.946 345.744,326.683C346.313,326.42 346.958,326.288 347.68,326.288ZM345.011,331.461C345.011,331.862 345.08,332.167 345.218,332.378C345.356,332.588 345.565,332.694 345.846,332.694C346.076,332.694 346.322,332.601 346.583,332.416C346.843,332.23 347.091,331.992 347.327,331.701C347.562,331.411 347.769,331.087 347.947,330.732C348.125,330.376 348.246,330.027 348.312,329.687L348.665,327.89C348.555,327.85 348.409,327.811 348.229,327.773C348.049,327.736 347.851,327.717 347.635,327.717C347.279,327.717 346.967,327.781 346.699,327.909C346.431,328.036 346.199,328.204 346.004,328.412C345.808,328.62 345.647,328.857 345.519,329.123C345.391,329.388 345.289,329.659 345.214,329.935C345.139,330.21 345.086,330.482 345.056,330.75C345.026,331.018 345.011,331.255 345.011,331.461Z" style="fill-rule:nonzero;"/>
            </g>
            <g transform="matrix(10.6985,0,0,10.6985,-3145.07,-3122.15)">
                <path d="M352.834,330.874C352.824,330.934 352.817,331.003 352.812,331.081C352.807,331.159 352.804,331.245 352.804,331.34C352.804,331.797 352.948,332.149 353.237,332.397C353.525,332.645 353.95,332.769 354.511,332.769C354.887,332.769 355.29,332.74 355.721,332.682C356.152,332.625 356.566,332.541 356.962,332.431L356.962,333.859C356.541,333.969 356.088,334.059 355.605,334.13C355.121,334.2 354.639,334.235 354.158,334.235C353.666,334.235 353.225,334.175 352.834,334.054C352.443,333.934 352.113,333.756 351.842,333.521C351.571,333.285 351.363,332.989 351.218,332.634C351.073,332.278 351,331.862 351,331.386C351,330.694 351.107,330.037 351.32,329.416C351.533,328.794 351.833,328.249 352.222,327.781C352.61,327.312 353.077,326.941 353.624,326.668C354.17,326.395 354.779,326.258 355.451,326.258C355.887,326.258 356.274,326.308 356.612,326.409C356.95,326.509 357.236,326.649 357.469,326.83C357.702,327.01 357.88,327.227 358.003,327.48C358.126,327.733 358.187,328.013 358.187,328.318C358.187,328.704 358.109,329.054 357.954,329.367C357.799,329.68 357.548,329.948 357.202,330.171C356.856,330.394 356.407,330.567 355.853,330.69C355.299,330.813 354.626,330.874 353.834,330.874L352.834,330.874ZM353.924,329.566C354.451,329.566 354.874,329.536 355.195,329.476C355.516,329.416 355.765,329.337 355.943,329.239C356.121,329.141 356.24,329.027 356.3,328.897C356.36,328.767 356.39,328.632 356.39,328.491C356.39,328.226 356.288,328.015 356.082,327.86C355.877,327.704 355.603,327.627 355.263,327.627C354.987,327.627 354.734,327.678 354.503,327.781C354.273,327.883 354.069,328.023 353.891,328.198C353.713,328.373 353.56,328.579 353.432,328.814C353.304,329.05 353.203,329.301 353.128,329.566L353.924,329.566Z" style="fill-rule:nonzero;"/>
            </g>
        </g>
    </g>
</svg>
