<?xml version="1.0" encoding="UTF-8" standalone="no"?>
<!DOCTYPE svg PUBLIC "-//W3C//DTD SVG 1.1//EN" "http://www.w3.org/Graphics/SVG/1.1/DTD/svg11.dtd">
<svg width="100%" height="100%" viewBox="0 0 676 149" version="1.1"
    xmlns="http://www.w3.org/2000/svg"
    xmlns:xlink="http://www.w3.org/1999/xlink" xml:space="preserve" style="fill-rule:evenodd;clip-rule:evenodd;stroke-linejoin:round;stroke-miterlimit:2;">
    <g id="Artboard1" transform="matrix(0.961129,0,0,0.874938,-93.4579,-280.642)">
        <rect x="97.238" y="320.757" width="702.762" height="169.851" style="fill:none;"/>
        <clipPath id="_clip1">
            <rect x="97.238" y="320.757" width="702.762" height="169.851"/>
        </clipPath>
        <g clip-path="url(#_clip1)">
            <g transform="matrix(6.01633,0,0,13.493,-159.541,-991.369)">
                <path d="M51.231,107.893C51.054,107.972 45.916,105.662 43.503,104.453C42.613,104.028 42.617,103.365 43.503,102.853C45.96,101.642 51.079,99.345 51.231,99.413C53.34,100.356 51.588,101.277 51.231,101.437C51.061,101.513 46.281,103.511 46.281,103.621C46.281,103.731 51.033,105.732 51.231,105.821C51.786,106.069 53.29,106.972 51.231,107.893Z" style="fill:rgb(225,225,225);fill-rule:nonzero;"/>
            </g>
            <g transform="matrix(6.01633,0,0,13.493,314.629,-991.369)">
                <path d="M62.935,109.641C62.837,109.597 67.926,96.295 67.985,96.269C68.045,96.242 70.843,96.235 70.918,96.269C70.993,96.302 70.062,98.379 70.111,98.421C70.221,98.515 79.401,102.767 79.593,102.853C80.702,103.349 80.702,103.957 79.593,104.453C79.342,104.565 72.495,107.922 72.431,107.893C70.235,106.911 72.033,105.999 72.431,105.821C72.608,105.742 76.938,103.707 76.938,103.622C76.938,103.536 69.457,100.202 69.38,100.237C69.304,100.271 65.976,109.592 65.868,109.641C65.76,109.689 63.003,109.671 62.935,109.641Z" style="fill:rgb(225,225,225);fill-rule:nonzero;"/>
            </g>
            <g transform="matrix(1.04044,0,0,1.14294,-30.307,-59.3294)">
                <path d="M225.469,400C243.638,400 258.389,414.331 258.389,431.982C258.389,449.633 243.638,463.964 225.469,463.964C207.301,463.964 192.55,449.633 192.55,431.982C192.55,414.331 207.301,400 225.469,400ZM223.899,443.038C222.923,443.038 222.046,442.917 221.265,442.676C220.485,442.435 219.821,442.071 219.271,441.583C218.722,441.095 218.299,440.479 218.001,439.735C217.703,438.991 217.554,438.116 217.554,437.11C217.554,436.227 217.649,435.357 217.839,434.5C218.029,433.642 218.306,432.826 218.671,432.051C219.035,431.276 219.482,430.563 220.01,429.911C220.539,429.259 221.15,428.694 221.843,428.217C222.536,427.74 223.301,427.368 224.137,427.101C224.974,426.834 225.88,426.7 226.855,426.7C227.82,426.7 228.695,426.821 229.481,427.062C230.266,427.303 230.933,427.668 231.482,428.155C232.032,428.643 232.455,429.259 232.753,430.003C233.05,430.748 233.199,431.623 233.199,432.629C233.199,433.512 233.104,434.382 232.914,435.239C232.725,436.096 232.45,436.91 232.091,437.679C231.731,438.449 231.285,439.163 230.751,439.82C230.217,440.477 229.606,441.044 228.919,441.521C228.231,441.999 227.466,442.371 226.624,442.638C225.782,442.905 224.874,443.038 223.899,443.038ZM247.859,442.468C247.15,442.643 246.445,442.781 245.741,442.884C245.038,442.987 244.379,443.038 243.763,443.038C242.736,443.038 241.856,442.925 241.122,442.699C240.388,442.474 239.805,442.114 239.374,441.621C238.943,441.129 238.674,440.487 238.566,439.697C238.458,438.906 238.517,437.946 238.743,436.817L240.129,429.965L235.94,429.965L236.51,427.039L240.698,427.039L241.515,423.035L245.564,422.035L244.548,427.039L250.63,427.039L250.061,429.965L243.978,429.965L242.592,436.848C242.49,437.371 242.441,437.831 242.446,438.226C242.451,438.621 242.528,438.942 242.677,439.188C242.826,439.435 243.049,439.627 243.347,439.766C243.645,439.905 244.035,439.974 244.517,439.974C245.092,439.974 245.662,439.922 246.227,439.82C246.791,439.717 247.335,439.604 247.859,439.481L247.859,442.468ZM209.686,426.762C210.24,426.762 210.728,426.788 211.149,426.839C211.57,426.89 211.954,426.947 212.304,427.008L213.535,420.926L217.277,420.926L214.382,435.4C214.321,435.729 214.259,436.081 214.198,436.455C214.136,436.83 214.072,437.292 214.005,437.841C213.938,438.39 213.864,439.055 213.782,439.835C213.7,440.615 213.607,441.565 213.505,442.684L210.44,442.684L210.563,439.851C210.327,440.21 210.03,440.577 209.67,440.952C209.311,441.326 208.893,441.668 208.415,441.976C207.938,442.284 207.409,442.538 206.829,442.738C206.249,442.938 205.621,443.038 204.943,443.038C203.424,443.038 202.271,442.566 201.486,441.621C200.701,440.677 200.308,439.337 200.308,437.602C200.308,436.032 200.519,434.582 200.939,433.252C201.36,431.923 201.971,430.778 202.772,429.818C203.573,428.859 204.556,428.109 205.721,427.57C206.886,427.031 208.208,426.762 209.686,426.762ZM204.219,437.356C204.219,438.177 204.36,438.804 204.643,439.235C204.925,439.666 205.354,439.881 205.929,439.881C206.401,439.881 206.904,439.692 207.438,439.312C207.971,438.932 208.48,438.444 208.962,437.849C209.445,437.253 209.868,436.591 210.232,435.862C210.597,435.134 210.846,434.42 210.979,433.722L211.703,430.042C211.477,429.96 211.179,429.88 210.81,429.803C210.44,429.726 210.035,429.688 209.593,429.688C208.865,429.688 208.225,429.818 207.676,430.08C207.127,430.342 206.652,430.686 206.252,431.112C205.852,431.538 205.52,432.023 205.259,432.567C204.997,433.111 204.789,433.666 204.635,434.23C204.481,434.795 204.373,435.352 204.312,435.901C204.25,436.45 204.219,436.935 204.219,437.356ZM229.257,432.998C229.257,431.982 229.008,431.22 228.51,430.712C228.013,430.203 227.297,429.949 226.362,429.949C225.808,429.949 225.305,430.055 224.853,430.265C224.402,430.475 223.994,430.755 223.629,431.104C223.265,431.453 222.949,431.859 222.682,432.321C222.415,432.783 222.195,433.265 222.02,433.768C221.845,434.271 221.715,434.777 221.627,435.285C221.54,435.793 221.496,436.273 221.496,436.725C221.496,437.741 221.748,438.506 222.251,439.019C222.754,439.532 223.473,439.789 224.407,439.789C224.961,439.789 225.464,439.684 225.916,439.473C226.368,439.263 226.773,438.981 227.132,438.626C227.492,438.272 227.805,437.867 228.072,437.41C228.339,436.953 228.559,436.473 228.734,435.97C228.908,435.467 229.039,434.959 229.126,434.446C229.214,433.932 229.257,433.45 229.257,432.998Z" style="fill:rgb(225,225,225);"/>
            </g>
            <g transform="matrix(11.1311,0,0,12.2277,-3115.18,-3627.75)">
                <path d="M306.554,329.697L306.87,328.094L310.54,328.094L309.427,333.596C308.917,333.812 308.41,333.974 307.908,334.082C307.405,334.19 306.851,334.243 306.246,334.243C305.646,334.243 305.111,334.159 304.64,333.991C304.169,333.822 303.769,333.576 303.44,333.253C303.111,332.929 302.86,332.532 302.686,332.061C302.512,331.59 302.426,331.049 302.426,330.439C302.426,330.033 302.464,329.582 302.54,329.085C302.616,328.588 302.747,328.084 302.931,327.573C303.115,327.063 303.36,326.568 303.665,326.089C303.97,325.61 304.35,325.184 304.806,324.81C305.261,324.437 305.8,324.137 306.424,323.911C307.047,323.684 307.77,323.571 308.591,323.571C309.059,323.571 309.527,323.615 309.996,323.701C310.464,323.788 310.906,323.9 311.322,324.037L310.951,325.829C310.604,325.697 310.21,325.577 309.771,325.47C309.331,325.362 308.872,325.308 308.393,325.308C307.914,325.308 307.484,325.388 307.103,325.548C306.721,325.709 306.384,325.922 306.092,326.188C305.8,326.454 305.552,326.759 305.346,327.104C305.141,327.448 304.973,327.809 304.841,328.185C304.71,328.561 304.613,328.94 304.553,329.322C304.492,329.703 304.462,330.06 304.462,330.391C304.462,330.733 304.503,331.035 304.585,331.295C304.666,331.556 304.795,331.777 304.971,331.958C305.148,332.14 305.374,332.277 305.65,332.369C305.926,332.461 306.259,332.507 306.649,332.507C306.891,332.507 307.095,332.492 307.261,332.463C307.426,332.434 307.593,332.391 307.762,332.333L308.299,329.697L306.554,329.697Z" style="fill:rgb(225,225,225);fill-rule:nonzero;"/>
            </g>
            <g transform="matrix(11.1311,0,0,12.2277,-3115.18,-3627.75)">
                <path d="M314.107,326.424L313.107,331.401C313.032,331.817 313.044,332.136 313.145,332.359C313.245,332.582 313.423,332.694 313.678,332.694C313.909,332.694 314.154,332.601 314.415,332.416C314.676,332.23 314.924,331.992 315.159,331.701C315.395,331.411 315.602,331.087 315.78,330.732C315.957,330.376 316.079,330.027 316.144,329.687L316.791,326.424L318.618,326.424L317.806,330.506C317.776,330.666 317.745,330.838 317.715,331.021C317.685,331.204 317.654,331.429 317.621,331.698C317.589,331.966 317.552,332.29 317.512,332.671C317.472,333.052 317.427,333.516 317.377,334.062L315.881,334.062L315.941,332.679C315.826,332.854 315.681,333.033 315.505,333.216C315.33,333.399 315.125,333.566 314.892,333.716C314.659,333.866 314.401,333.991 314.118,334.088C313.835,334.186 313.528,334.235 313.197,334.235C312.791,334.235 312.447,334.167 312.163,334.032C311.88,333.897 311.657,333.705 311.494,333.457C311.331,333.209 311.231,332.908 311.194,332.555C311.156,332.201 311.182,331.807 311.273,331.371L312.28,326.424L314.107,326.424Z" style="fill:rgb(225,225,225);fill-rule:nonzero;"/>
            </g>
            <g transform="matrix(11.1311,0,0,12.2277,-3115.18,-3627.75)">
                <path d="M323.403,331.506C323.313,331.982 323.315,332.317 323.411,332.509C323.506,332.702 323.694,332.799 323.974,332.799C324.21,332.799 324.471,332.748 324.756,332.645C325.042,332.542 325.368,332.403 325.734,332.228L325.734,333.633C325.408,333.809 325.058,333.953 324.685,334.066C324.312,334.178 323.932,334.235 323.546,334.235C322.689,334.235 322.092,334.013 321.757,333.569C321.421,333.126 321.351,332.418 321.546,331.446L322.035,328.98C322.13,328.504 322.128,328.169 322.027,327.976C321.927,327.783 321.739,327.687 321.463,327.687C321.233,327.687 320.974,327.738 320.685,327.841C320.397,327.944 320.073,328.083 319.712,328.258L319.712,326.852C320.038,326.672 320.386,326.527 320.757,326.416C321.128,326.306 321.509,326.251 321.9,326.251C322.752,326.251 323.345,326.474 323.681,326.92C324.017,327.366 324.09,328.073 323.899,329.04L323.403,331.506ZM324.914,324.266C324.914,324.447 324.879,324.614 324.809,324.77C324.739,324.925 324.645,325.059 324.527,325.172C324.409,325.285 324.274,325.373 324.121,325.435C323.968,325.498 323.807,325.529 323.636,325.529C323.461,325.529 323.3,325.498 323.155,325.435C323.01,325.373 322.884,325.29 322.779,325.187C322.674,325.084 322.592,324.964 322.535,324.826C322.477,324.688 322.448,324.544 322.448,324.394C322.448,324.214 322.483,324.047 322.554,323.894C322.624,323.741 322.719,323.608 322.839,323.496C322.96,323.383 323.097,323.294 323.253,323.229C323.408,323.164 323.571,323.131 323.741,323.131C323.922,323.131 324.083,323.162 324.226,323.225C324.369,323.288 324.492,323.372 324.595,323.477C324.697,323.582 324.776,323.702 324.832,323.838C324.887,323.973 324.914,324.116 324.914,324.266Z" style="fill:rgb(225,225,225);fill-rule:nonzero;"/>
            </g>
            <g transform="matrix(11.1311,0,0,12.2277,-3115.18,-3627.75)">
                <path d="M331.519,326.288C331.79,326.288 332.028,326.301 332.233,326.326C332.439,326.351 332.627,326.379 332.797,326.409L333.399,323.439L335.225,323.439L333.812,330.506C333.782,330.666 333.752,330.838 333.722,331.021C333.692,331.204 333.66,331.429 333.628,331.698C333.595,331.966 333.559,332.29 333.519,332.671C333.479,333.052 333.434,333.516 333.384,334.062L331.887,334.062L331.948,332.679C331.832,332.854 331.687,333.033 331.512,333.216C331.336,333.399 331.132,333.566 330.899,333.716C330.666,333.866 330.408,333.991 330.125,334.088C329.841,334.186 329.534,334.235 329.204,334.235C328.462,334.235 327.899,334.004 327.516,333.543C327.132,333.082 326.941,332.428 326.941,331.581C326.941,330.814 327.043,330.106 327.249,329.457C327.454,328.808 327.753,328.249 328.144,327.781C328.535,327.312 329.014,326.946 329.583,326.683C330.152,326.42 330.797,326.288 331.519,326.288ZM328.85,331.461C328.85,331.862 328.919,332.167 329.057,332.378C329.195,332.588 329.404,332.694 329.685,332.694C329.915,332.694 330.161,332.601 330.421,332.416C330.682,332.23 330.93,331.992 331.166,331.701C331.401,331.411 331.608,331.087 331.786,330.732C331.964,330.376 332.085,330.027 332.151,329.687L332.504,327.89C332.394,327.85 332.248,327.811 332.068,327.773C331.887,327.736 331.69,327.717 331.474,327.717C331.118,327.717 330.806,327.781 330.538,327.909C330.27,328.036 330.038,328.204 329.843,328.412C329.647,328.62 329.486,328.857 329.358,329.123C329.23,329.388 329.128,329.659 329.053,329.935C328.978,330.21 328.925,330.482 328.895,330.75C328.865,331.018 328.85,331.255 328.85,331.461Z" style="fill:rgb(225,225,225);fill-rule:nonzero;"/>
            </g>
            <g transform="matrix(11.1311,0,0,12.2277,-3115.18,-3627.75)">
                <path d="M336.673,330.874C336.663,330.934 336.656,331.003 336.651,331.081C336.646,331.159 336.643,331.245 336.643,331.34C336.643,331.797 336.787,332.149 337.076,332.397C337.364,332.645 337.789,332.769 338.35,332.769C338.726,332.769 339.129,332.74 339.56,332.682C339.991,332.625 340.405,332.541 340.801,332.431L340.801,333.859C340.38,333.969 339.927,334.059 339.444,334.13C338.96,334.2 338.478,334.235 337.997,334.235C337.505,334.235 337.064,334.175 336.673,334.054C336.282,333.934 335.952,333.756 335.681,333.521C335.41,333.285 335.202,332.989 335.057,332.634C334.912,332.278 334.839,331.862 334.839,331.386C334.839,330.694 334.946,330.037 335.159,329.416C335.372,328.794 335.672,328.249 336.061,327.781C336.449,327.312 336.916,326.941 337.463,326.668C338.009,326.395 338.618,326.258 339.29,326.258C339.726,326.258 340.113,326.308 340.451,326.409C340.789,326.509 341.075,326.649 341.308,326.83C341.541,327.01 341.719,327.227 341.842,327.48C341.965,327.733 342.026,328.013 342.026,328.318C342.026,328.704 341.948,329.054 341.793,329.367C341.638,329.68 341.387,329.948 341.041,330.171C340.695,330.394 340.246,330.567 339.692,330.69C339.138,330.813 338.465,330.874 337.673,330.874L336.673,330.874ZM337.763,329.566C338.29,329.566 338.713,329.536 339.034,329.476C339.355,329.416 339.604,329.337 339.782,329.239C339.96,329.141 340.079,329.027 340.139,328.897C340.199,328.767 340.229,328.632 340.229,328.491C340.229,328.226 340.127,328.015 339.921,327.86C339.716,327.704 339.442,327.627 339.102,327.627C338.826,327.627 338.573,327.678 338.342,327.781C338.112,327.883 337.908,328.023 337.73,328.198C337.552,328.373 337.399,328.579 337.271,328.814C337.143,329.05 337.042,329.301 336.967,329.566L337.763,329.566Z" style="fill:rgb(225,225,225);fill-rule:nonzero;"/>
            </g>
        </g>
    </g>
</svg>
